<svg id="Layer_1" data-name="Layer 1" xmlns="http://www.w3.org/2000/svg" width="172.21" height="172.21" viewBox="0 0 172.21 172.21"><defs><style>.cls-1{fill:#f05a28;}.cls-2{fill:#fff;}</style></defs><rect class="cls-1" width="172.21" height="172.21" rx="50%"/><path class="cls-2" d="M134,96.25l-15,5.23V92.59a4.3,4.3,0,0,0-4.3-4.3H53.17a4.29,4.29,0,0,0-4.3,4.3V137a4.3,4.3,0,0,0,4.3,4.31h61.52A4.31,4.31,0,0,0,119,137v-8.89l15,5.24a3,3,0,0,0,4.05-2.88V99.12A3,3,0,0,0,134,96.25Z"/><path class="cls-2" d="M83.93,70.9a26.67,26.67,0,1,0,0-26.65,26.67,26.67,0,1,0,0,26.65ZM107,47.82a9.76,9.76,0,1,1-9.76,9.75A9.76,9.76,0,0,1,107,47.82ZM51.09,57.57a9.76,9.76,0,1,1,9.75,9.76A9.76,9.76,0,0,1,51.09,57.57Z"/></svg>