<svg id="Layer_1" data-name="Layer 1" xmlns="http://www.w3.org/2000/svg" width="172.21" height="172.21" viewBox="0 0 172.21 172.21"><defs><style>.cls-1{fill:#9e4a9b;}.cls-2{fill:#fff;}</style></defs><rect class="cls-1" width="172.21" height="172.21" rx="50%"/><path class="cls-2" d="M121.63,98.8V61.25L75.63,68v2.39c0,15.06-.08,30.13,0,45.19a13.57,13.57,0,0,1-5.14,11.07c-6.22,5.26-16.56,6.21-23.63,2.19-8.64-4.91-9.41-15.05-1.56-21.14,5.1-4,10.93-5,17.21-4.1.75.11,1.48.27,2.6.47v-3.14c0-16.15,0-32.29,0-48.43,0-2.19.7-2.81,2.81-3.08,20.41-2.65,40.81-5.43,61.22-8.16,1-.13,1.94-.18,3.07-.29,0,1,.11,1.73.11,2.48q0,33.78,0,67.57a12.76,12.76,0,0,1-4.26,9.61c-6.2,5.91-16.72,7.25-24.27,3.12-9-4.91-9.74-15.38-1.46-21.52,5.23-3.88,11.15-4.92,17.5-3.74Z"/></svg>