<svg id="Layer_1" data-name="Layer 1" xmlns="http://www.w3.org/2000/svg" width="172.21" height="172.21" viewBox="0 0 172.21 172.21"><defs><style>.cls-1{fill:#b4cb43;}.cls-2{fill:#fff;}</style></defs><rect class="cls-1" width="172.21" height="172.21" rx="50%"/><path class="cls-2" d="M123.75,54.47A10.46,10.46,0,0,0,134.2,44V37.87a10.47,10.47,0,0,0-10.45-10.46H48.47A10.47,10.47,0,0,0,38,37.87V44A10.46,10.46,0,0,0,48.47,54.47h1.59V94.61H48.47A10.46,10.46,0,0,0,38,105.06v29.29A10.46,10.46,0,0,0,48.47,144.8h75.28a10.46,10.46,0,0,0,10.45-10.45V105.06a10.46,10.46,0,0,0-10.45-10.45h-1.59V54.47ZM45.44,44V37.87a3,3,0,0,1,3-3h75.28a3,3,0,0,1,3,3V44a3,3,0,0,1-3,3H48.47A3,3,0,0,1,45.44,44Zm81.34,61v29.29a3,3,0,0,1-3,3H48.47a3,3,0,0,1-3-3V105.06a3,3,0,0,1,3-3h75.28A3,3,0,0,1,126.78,105.06Zm-12-10.45H102.62a16.61,16.61,0,0,0-12.7-14.35,11.81,11.81,0,1,0-6.77-.18A16.6,16.6,0,0,0,69.6,94.61H57.48V54.47h57.25Z"/></svg>