<svg id="Layer_1" data-name="Layer 1" xmlns="http://www.w3.org/2000/svg" width="172.21" height="172.21" viewBox="0 0 172.21 172.21"><defs><style>.cls-1{fill:#faaf40;}.cls-2{fill:#fff;}</style></defs><rect class="cls-1" width="172.21" height="172.21" rx="50%"/><path class="cls-2" d="M123,134H96.78c-.62-4.85-.68-9.13,3.8-12.5,3.53-2.65,6.5-6.06,9.65-9.2,2.45-2.44,2.62-5.06.61-7.21-1.85-2-4.52-2.06-7.06-.08-3.43,2.68-6.73,5.51-10.2,8.11-6.27,4.71-13.65,4.62-19.88-.18-3.28-2.52-6.47-5.18-9.72-7.75-2.68-2.13-5.44-2.16-7.32-.13-2.1,2.26-1.86,4.82.8,7.43,2.95,2.91,5.68,6.14,9,8.56,4.67,3.4,5.13,7.74,4.15,12.94H39.72c1-5.65,2-11.16,3-16.66,1.22-6.65,2.5-13.29,3.63-19.95a3.3,3.3,0,0,0-.82-2.57c-.34-.32-1.74.07-2.36.54-2.9,2.19-5.69,4.53-8.54,6.8s-5.4,2.38-7.29.39-1.69-4.57.75-7.21c4.25-4.61,8.54-9.18,12.77-13.8a11.16,11.16,0,0,1,8.87-3.81c6.87.08,13.75.13,20.62,0,4.19-.09,7.8.86,11,4.9,1.56-1.8,3-3.45,4.41-5.08a14.45,14.45,0,0,1,11.56-5c6.87.07,13.75.1,20.62,0A15.16,15.16,0,0,1,130,77.68c4.57,5,9.28,9.87,13.89,14.83,2.66,2.85,2.93,5.55.89,7.75s-4.84,2.16-8-.52-6.26-5.43-9.49-8a12.63,12.63,0,0,0-3.14-1.33,11.42,11.42,0,0,0-1,3.22c-.07,12.84,0,25.68,0,38.52C123.12,132.64,123.07,133.14,123,134ZM83.7,113a12.49,12.49,0,1,0-12.48-12.52A12.63,12.63,0,0,0,83.7,113Z"/><path class="cls-2" d="M107.84,38.22a15.29,15.29,0,1,1-15.45,15.3A15.22,15.22,0,0,1,107.84,38.22Z"/><path class="cls-2" d="M46.65,60.14a14,14,0,1,1,28,.21,14,14,0,1,1-28-.21Z"/></svg>