<svg id="Layer_1" data-name="Layer 1" xmlns="http://www.w3.org/2000/svg" width="172.21" height="172.21" viewBox="0 0 172.21 172.21"><defs><style>.cls-1{fill:#00add6;}.cls-2{fill:#fff;}</style></defs><rect class="cls-1" width="172.21" height="172.21" rx="50%"/><path class="cls-2" d="M91.32,76.82a4.62,4.62,0,0,1,.36.42l5,7.37a5.76,5.76,0,0,0,4.76,2.89q9.94.1,19.9,0c3.28,0,6-3.5,5.59-6.74-.48-3.56-3-5.65-6.77-5.65-4.62,0-9.25,0-13.87,0a1.75,1.75,0,0,1-1.67-.89q-4.12-6.22-8.34-12.4a20,20,0,0,0-16.73-9.22c-7.2-.17-14.4-.06-21.59,0A5.73,5.73,0,0,0,53.18,55Q47.57,62.68,42,70.43a5.6,5.6,0,0,0-1,4.35,6.19,6.19,0,0,0,11.29,2.53c2.74-3.78,5.46-7.56,8.2-11.33.27-.37.67-.88,1-.89,2.51-.08,5,0,7.73,0-.3.52-.48.86-.69,1.19-4,6.2-8,12.45-12.11,18.57a19.71,19.71,0,0,0-3.43,11.57c0,6,0,12,0,18,0,1.06-.35,1.43-1.32,1.66q-8.64,2.13-17.26,4.36a7.4,7.4,0,0,0-5.5,5.36,8.85,8.85,0,0,0-.22,2.91c1.27,5.36,4.89,7.58,10.19,6.24,2.64-.68,5.29-1.33,7.93-2,5.25-1.33,10.51-2.6,15.73-4a7.39,7.39,0,0,0,5.56-7.42c0-3.21,0-6.43,0-9.65a4.14,4.14,0,0,1,.65-2.08l2-2.91c2.67,2.27,8.54,7.24,10.79,9.09a2.42,2.42,0,0,1,1,2.11q-.08,10.13,0,20.25a7.85,7.85,0,0,0,9.46,7.29c3.51-.83,5.65-3.68,5.66-7.66,0-8.08,0-16.16,0-24.23a8.24,8.24,0,0,0-3.07-6.53q-2.92-2.52-5.88-5l-9.44-7.94L90.64,77.71C90.84,77.43,91.06,77.16,91.32,76.82Z"/><path class="cls-2" d="M102,56.84a15.3,15.3,0,0,0,7.16-27.23,17.25,17.25,0,0,0-6.44-2.92,27.58,27.58,0,0,0-2.89-.2,25.34,25.34,0,0,0-2.53.23A15.24,15.24,0,0,0,102,56.84Z"/><path class="cls-2" d="M143.17,109.66a16.08,16.08,0,0,0-31.81,4.67A16,16,0,0,0,143,115.45c.16-.78.3-1.56.45-2.34v-1.69Z"/></svg>