<svg id="Layer_1" data-name="Layer 1" width="172.21" height="172.21" xmlns="http://www.w3.org/2000/svg" viewBox="0 0 172.21 172.21"><defs><style>.cls-1{fill:#f16963;}.cls-2{fill:#fff;}</style></defs><rect class="cls-1" width="172.21" height="172.21" rx="50%"/><path class="cls-2" d="M133.39,89A16.35,16.35,0,1,0,124,88.7a23,23,0,0,0-15,9.74,23,23,0,0,0-17.6-20.39A16.35,16.35,0,1,0,82,77.8a23,23,0,0,0-18.8,20.64A23,23,0,0,0,49.44,89,16.35,16.35,0,1,0,40,88.7a23,23,0,0,0-18.89,22.63V122.4h46V111.5h37.94v10.9h46V111.33A23,23,0,0,0,133.39,89Z"/></svg>