<svg id="Layer_1" data-name="Layer 1" xmlns="http://www.w3.org/2000/svg" width="172.21" height="172.21" viewBox="0 0 172.21 172.21"><defs><style>.cls-1{fill:#3b72b7;}.cls-2{fill:#fff;}</style></defs><rect class="cls-1" width="172.21" height="172.21" rx="50%"/><path class="cls-2" d="M122.76,77.44h-1.11V68.81a15.57,15.57,0,0,0-4.6-11.1l-5-5.05a2.85,2.85,0,0,0-4,4l5,5.05A9.93,9.93,0,0,1,116,68.81v8.63h-9.16A20.77,20.77,0,0,0,90.88,59.23,14.78,14.78,0,1,0,82.41,59a20.78,20.78,0,0,0-17,18.44H56.26V68.81a9.93,9.93,0,0,1,2.93-7.07l5-5.05a2.85,2.85,0,0,0-4-4l-5.05,5.05a15.61,15.61,0,0,0-4.6,11.1v8.63H49.45a4,4,0,0,0,0,8H59.2V142H113V85.4h9.75a4,4,0,0,0,0-8Z"/></svg>