<svg id="Layer_1" data-name="Layer 1" xmlns="http://www.w3.org/2000/svg" width="172.21" height="172.21" viewBox="0 0 172.21 172.21"><defs><style>.cls-1{fill:#e394bf;}.cls-2{fill:#fff;}</style></defs><rect class="cls-1" width="172.21" height="172.21" rx="50%"/><path class="cls-2" d="M112.92,53.83c-.36-3.07-.61-5.3,1.51-8s4.33-3,7.4-3.42c3.44-.46,7.72-1,11.35-5.68A3,3,0,0,0,128.44,33c-2.11,2.72-4.33,3-7.4,3.42-3.44.46-7.71,1-11.34,5.68s-3.14,8.94-2.74,12.39c.35,3.07.61,5.29-1.51,8s-4.34,3-7.41,3.42c-3.44.46-7.72,1-11.35,5.68a3,3,0,1,0,4.73,3.69c2.13-2.72,4.34-3,7.41-3.42,3.44-.46,7.72-1,11.35-5.68S113.32,57.28,112.92,53.83Z"/><path class="cls-2" d="M60.07,51.69a3,3,0,0,0,1.48,4,2.92,2.92,0,0,0,1.25.28,3,3,0,0,0,2.73-1.75c2.46-5.37,1-9.43-.19-12.69-1-2.91-1.81-5-.38-8.15s3.53-3.92,6.42-5c3.24-1.23,7.27-2.77,9.73-8.13a3,3,0,1,0-5.45-2.5c-1.44,3.13-3.52,3.93-6.41,5C66,24,62,25.49,59.51,30.85s-1,9.43.19,12.69C60.75,46.45,61.51,48.55,60.07,51.69Z"/><path class="cls-2" d="M136.87,93.33c-3,1.63-5.18,1-8.15.13-3.33-1-7.47-2.19-12.67.59a3,3,0,1,0,2.83,5.29c3-1.62,5.18-1,8.15-.13a21.23,21.23,0,0,0,6.13,1.13,13.6,13.6,0,0,0,6.54-1.72,3,3,0,1,0-2.83-5.29Z"/><polygon class="cls-2" points="128.55 58.93 120.87 59.2 125.76 65.13 123.64 72.52 130.79 69.7 137.16 74 136.69 66.33 142.75 61.6 135.31 59.67 132.68 52.45 128.55 58.93"/><polygon class="cls-2" points="75.53 62.6 73.79 57.82 71.06 62.11 65.97 62.29 69.21 66.22 67.81 71.11 72.54 69.24 76.76 72.09 76.45 67.01 80.45 63.88 75.53 62.6"/><path class="cls-2" d="M75.78,86.71A85.08,85.08,0,0,0,58,76.14c-6.27-2.6-10.86-3-13.63-1.2l-.48.35a5.34,5.34,0,0,0-.94,1c-.38.49-.74,1-25.23,71.81a9.79,9.79,0,0,0,14.87,11.26c61.48-42.92,61.83-43.39,62.21-43.89a5.27,5.27,0,0,0,.67-1.17l.21-.55c1-3.17-.66-7.47-4.87-12.79A85.4,85.4,0,0,0,75.78,86.71ZM43.87,91.09c1,11.46,3.89,32.86,12.53,44.28-3.19,2.22-6.42,4.49-9.64,6.74-2.56-4.61-7.55-15.4-9.44-32.25C39.78,102.77,42.05,96.27,43.87,91.09ZM29.14,154.42a3.79,3.79,0,0,1-5.76-4.37c1.64-4.72,3.41-9.86,5.24-15.14.77,5.14,2.49,11.73,6.32,15.46ZM89.94,112ZM71.42,124.84c-2.56-4.55-7.4-16-9.38-40A89.36,89.36,0,0,1,72.16,91.5C84.43,100.77,90.1,109.32,90,111.72,88,113.17,80.79,118.26,71.42,124.84Z"/><path class="cls-2" d="M41.46,30a3.67,3.67,0,1,0-3.24-4A3.66,3.66,0,0,0,41.46,30Z"/><path class="cls-2" d="M42.88,50.75a3.66,3.66,0,1,0,4-3.24A3.67,3.67,0,0,0,42.88,50.75Z"/><path class="cls-2" d="M143.42,78.82a3.66,3.66,0,1,0,3.24,4A3.66,3.66,0,0,0,143.42,78.82Z"/><path class="cls-2" d="M84.23,41.57a3.67,3.67,0,1,0-3.24-4A3.67,3.67,0,0,0,84.23,41.57Z"/><path class="cls-2" d="M104.73,24.44a3.67,3.67,0,1,0-3.24-4A3.66,3.66,0,0,0,104.73,24.44Z"/><path class="cls-2" d="M118,81.34a3.67,3.67,0,1,0-4,3.24A3.67,3.67,0,0,0,118,81.34Z"/><path class="cls-2" d="M97.46,88.47a3.67,3.67,0,1,0,3.24,4A3.67,3.67,0,0,0,97.46,88.47Z"/><path class="cls-2" d="M121.13,110a3.66,3.66,0,1,0,1.41,5A3.65,3.65,0,0,0,121.13,110Z"/><path class="cls-2" d="M150.62,42.79a3.66,3.66,0,1,0,1.41,5A3.65,3.65,0,0,0,150.62,42.79Z"/></svg>